<?xml version="1.0" encoding="UTF-8" standalone="no"?>
<!-- Created with Inkscape (http://www.inkscape.org/) -->

<svg
   xmlns:dc="http://purl.org/dc/elements/1.1/"
   xmlns:cc="http://creativecommons.org/ns#"
   xmlns:rdf="http://www.w3.org/1999/02/22-rdf-syntax-ns#"
   xmlns:svg="http://www.w3.org/2000/svg"
   xmlns="http://www.w3.org/2000/svg"
   xmlns:sodipodi="http://sodipodi.sourceforge.net/DTD/sodipodi-0.dtd"
   xmlns:inkscape="http://www.inkscape.org/namespaces/inkscape"
   width="512"
   height="512"
   id="svg3520"
   version="1.1"
   inkscape:version="0.48.2 r9819"
   sodipodi:docname="New document 3">
  <defs
     id="defs3522" />
  <sodipodi:namedview
     id="base"
     pagecolor="#ffffff"
     bordercolor="#666666"
     borderopacity="1.0"
     inkscape:pageopacity="0.0"
     inkscape:pageshadow="2"
     inkscape:zoom="0.24748737"
     inkscape:cx="-485.00118"
     inkscape:cy="-311.55885"
     inkscape:document-units="px"
     inkscape:current-layer="layer1"
     showgrid="false"
     inkscape:window-width="1280"
     inkscape:window-height="962"
     inkscape:window-x="1358"
     inkscape:window-y="-8"
     inkscape:window-maximized="1" />
  <metadata
     id="metadata3525">
    <rdf:RDF>
      <cc:Work
         rdf:about="">
        <dc:format>image/svg+xml</dc:format>
        <dc:type
           rdf:resource="http://purl.org/dc/dcmitype/StillImage" />
        <dc:title></dc:title>
      </cc:Work>
    </rdf:RDF>
  </metadata>
  <g
     inkscape:label="Layer 1"
     inkscape:groupmode="layer"
     id="layer1"
     transform="translate(0,-540.36218)">
    <path
       style="fill:#c93b2e"
       inkscape:connector-curvature="0"
       d="m 367.03484,778.04778 c 0.83079,-5.50625 1.26596,-11.14376 1.26596,-16.88379 0,-62.02348 -50.27731,-112.30079 -112.3008,-112.30079 -62.02169,0 -112.30081,50.27731 -112.30081,112.30079 0,5.73823 0.43518,11.37575 1.26598,16.88379 h 222.06967 z"
       id="path3477" />
    <g
       id="g3479"
       transform="matrix(1.7982515,0,0,1.7982515,40.362671,548.8912)">
      <path
         style="fill:#ffffff"
         inkscape:connector-curvature="0"
         d="m 71.27,95.254 c 0.417,-0.25 0.945,-0.542 1.585,-0.876 0.639,-0.333 1.356,-0.66 2.148,-0.98 0.793,-0.319 1.641,-0.584 2.545,-0.792 0.904,-0.208 1.842,-0.313 2.816,-0.313 1.251,0 2.545,0.132 3.88,0.396 1.335,0.265 2.551,0.724 3.65,1.376 1.099,0.654 2.002,1.538 2.712,2.649 0.709,1.113 1.064,2.503 1.064,4.172 v 8.135 h 2.503 v 5.341 h -8.928 l -1.001,-1.878 c -0.39,0.529 -0.828,0.967 -1.314,1.314 -0.487,0.348 -0.987,0.619 -1.502,0.814 -0.515,0.193 -1.022,0.333 -1.522,0.416 -0.501,0.084 -0.932,0.125 -1.293,0.125 -1.001,0 -1.989,-0.139 -2.962,-0.416 -0.974,-0.279 -1.85,-0.695 -2.628,-1.252 -0.779,-0.557 -1.412,-1.272 -1.898,-2.148 -0.487,-0.877 -0.73,-1.926 -0.73,-3.15 0,-1.168 0.229,-2.225 0.688,-3.17 0.459,-0.945 1.085,-1.753 1.877,-2.42 0.793,-0.668 1.717,-1.183 2.774,-1.545 1.057,-0.36 2.169,-0.541 3.338,-0.541 0.611,0 1.161,0.062 1.648,0.188 0.486,0.125 0.903,0.271 1.251,0.438 0.348,0.167 0.626,0.334 0.834,0.501 0.208,0.167 0.34,0.278 0.396,0.333 v -1.459 c 0,-0.945 -0.375,-1.572 -1.126,-1.878 -0.751,-0.306 -1.697,-0.459 -2.837,-0.459 -1.252,0 -2.399,0.208 -3.442,0.626 -1.043,0.417 -1.968,0.849 -2.774,1.293 l -1.752,-4.84 z m 9.261,14.477 c 0.64,0 1.196,-0.153 1.669,-0.459 0.473,-0.306 0.807,-0.611 1.001,-0.918 v -1.585 c -0.028,-0.056 -0.091,-0.146 -0.188,-0.271 -0.098,-0.125 -0.244,-0.257 -0.438,-0.396 -0.195,-0.139 -0.438,-0.264 -0.73,-0.375 -0.292,-0.111 -0.661,-0.168 -1.105,-0.168 -0.834,0 -1.447,0.209 -1.836,0.627 -0.39,0.416 -0.584,0.945 -0.584,1.585 0,0.584 0.208,1.058 0.625,1.419 0.418,0.36 0.946,0.541 1.586,0.541 z"
         id="path3481" />
      <path
         style="fill:#ffffff"
         inkscape:connector-curvature="0"
         d="m 116.786,111.483 c -1.558,1.335 -3.199,2.274 -4.923,2.816 -1.725,0.542 -3.671,0.813 -5.841,0.813 -1.308,0 -2.615,-0.216 -3.921,-0.646 -1.308,-0.432 -2.482,-1.099 -3.525,-2.003 -1.043,-0.903 -1.898,-2.071 -2.566,-3.505 -0.667,-1.432 -1.001,-3.149 -1.001,-5.152 0,-1.695 0.292,-3.219 0.876,-4.568 0.584,-1.349 1.376,-2.496 2.378,-3.442 1.001,-0.945 2.183,-1.662 3.546,-2.148 1.363,-0.486 2.837,-0.73 4.422,-0.73 1.252,0 2.413,0.153 3.484,0.459 1.07,0.306 2.037,0.724 2.899,1.251 0.862,0.529 1.599,1.168 2.211,1.919 0.611,0.751 1.07,1.558 1.376,2.419 0.111,0.362 0.223,0.821 0.334,1.377 0.111,0.557 0.188,1.154 0.229,1.795 0.042,0.64 0.027,1.3 -0.042,1.98 -0.069,0.683 -0.216,1.314 -0.438,1.898 h -13.142 c 0.055,0.279 0.146,0.613 0.271,1.002 0.125,0.39 0.34,0.766 0.646,1.127 0.306,0.361 0.723,0.667 1.252,0.918 0.528,0.25 1.237,0.375 2.127,0.375 0.361,0 0.758,-0.014 1.189,-0.042 0.431,-0.027 0.897,-0.11 1.398,-0.251 0.5,-0.139 1.028,-0.34 1.585,-0.604 0.556,-0.265 1.112,-0.633 1.668,-1.106 l 3.508,4.048 z M 106.481,98.55 c -0.64,0 -1.162,0.125 -1.564,0.375 -0.403,0.25 -0.724,0.549 -0.959,0.896 -0.237,0.349 -0.404,0.717 -0.501,1.105 -0.098,0.391 -0.16,0.71 -0.188,0.96 h 6.3 c 0,-0.39 -0.042,-0.786 -0.125,-1.188 -0.083,-0.403 -0.229,-0.766 -0.438,-1.085 -0.208,-0.319 -0.515,-0.577 -0.917,-0.772 -0.405,-0.193 -0.941,-0.291 -1.608,-0.291 z"
         id="path3483" />
      <path
         style="fill:#ffffff"
         inkscape:connector-curvature="0"
         d="m 130.637,114.362 h -12.183 v -5.466 h 1.794 V 88.453 h -1.752 v -5.382 h 9.679 v 25.825 h 2.462 v 5.466 z"
         id="path3485" />
      <path
         style="fill:#ffffff"
         inkscape:connector-curvature="0"
         d="m 143.987,114.362 h -11.682 v -5.466 h 1.752 v -9.971 h -1.752 v -5.424 h 9.679 v 15.395 h 2.003 v 5.466 z M 133.473,87.41 c 0,-0.473 0.098,-0.959 0.292,-1.46 0.194,-0.501 0.48,-0.96 0.855,-1.377 0.376,-0.417 0.849,-0.757 1.419,-1.022 0.569,-0.264 1.216,-0.396 1.939,-0.396 0.723,0 1.37,0.132 1.94,0.396 0.569,0.265 1.049,0.605 1.439,1.022 0.389,0.417 0.688,0.876 0.896,1.377 0.209,0.5 0.313,0.987 0.313,1.46 0,1.168 -0.391,2.163 -1.169,2.983 -0.778,0.821 -1.919,1.231 -3.421,1.231 -0.667,0 -1.272,-0.125 -1.814,-0.375 -0.543,-0.25 -1.016,-0.577 -1.419,-0.98 -0.403,-0.403 -0.716,-0.855 -0.938,-1.356 -0.222,-0.501 -0.332,-1.002 -0.332,-1.503 z"
         id="path3487" />
      <path
         style="fill:#ffffff"
         inkscape:connector-curvature="0"
         d="m 146.532,95.254 c 0.417,-0.25 0.945,-0.542 1.585,-0.876 0.64,-0.333 1.356,-0.66 2.149,-0.98 0.792,-0.319 1.641,-0.584 2.545,-0.792 0.903,-0.208 1.842,-0.313 2.815,-0.313 1.252,0 2.545,0.132 3.88,0.396 1.335,0.265 2.552,0.724 3.651,1.376 1.098,0.654 2.002,1.538 2.711,2.649 0.71,1.113 1.064,2.503 1.064,4.172 v 8.135 h 2.503 v 5.341 h -8.928 l -1.002,-1.878 c -0.39,0.529 -0.827,0.967 -1.313,1.314 -0.487,0.348 -0.988,0.619 -1.502,0.814 -0.516,0.193 -1.022,0.333 -1.523,0.416 -0.5,0.084 -0.932,0.125 -1.293,0.125 -1.001,0 -1.989,-0.139 -2.962,-0.416 -0.975,-0.279 -1.851,-0.695 -2.629,-1.252 -0.778,-0.557 -1.412,-1.272 -1.898,-2.148 -0.486,-0.877 -0.729,-1.926 -0.729,-3.15 0,-1.168 0.229,-2.225 0.688,-3.17 0.459,-0.945 1.084,-1.753 1.877,-2.42 0.793,-0.668 1.717,-1.183 2.774,-1.545 1.057,-0.36 2.17,-0.541 3.338,-0.541 0.611,0 1.161,0.062 1.647,0.188 0.486,0.126 0.904,0.271 1.252,0.438 0.348,0.167 0.626,0.334 0.834,0.501 0.209,0.167 0.341,0.278 0.396,0.333 v -1.459 c 0,-0.945 -0.375,-1.572 -1.126,-1.878 -0.751,-0.306 -1.697,-0.459 -2.837,-0.459 -1.252,0 -2.399,0.208 -3.442,0.626 -1.043,0.417 -1.968,0.849 -2.774,1.293 l -1.751,-4.84 z m 9.261,14.477 c 0.64,0 1.195,-0.153 1.669,-0.459 0.473,-0.306 0.807,-0.611 1.001,-0.918 v -1.585 c -0.027,-0.056 -0.09,-0.146 -0.188,-0.271 -0.098,-0.125 -0.244,-0.257 -0.438,-0.396 -0.195,-0.139 -0.438,-0.264 -0.73,-0.375 -0.292,-0.111 -0.661,-0.168 -1.105,-0.168 -0.835,0 -1.446,0.209 -1.836,0.627 -0.39,0.416 -0.584,0.945 -0.584,1.585 0,0.584 0.209,1.058 0.626,1.419 0.417,0.361 0.946,0.541 1.585,0.541 z"
         id="path3489" />
    </g>
    <path
       style="fill:#e57a25"
       inkscape:connector-curvature="0"
       d="m 43.842286,744.28561 v 32.2948 l 87.785244,1.09873 c -0.7211,-5.4469 -1.13289,-10.99271 -1.13289,-16.64102 0,-69.29742 56.20075,-125.4676 125.50535,-125.4676 69.30462,0 125.46761,56.17018 125.46761,125.4676 0,5.64831 -0.4118,11.19412 -1.1311,16.64102 l 87.82121,-1.09873 v -33.35217 l -50.34745,-8.83301 -0.0378,0.0342 c -1.76048,-10.78952 -4.56396,-21.23376 -8.3241,-31.21226 l 39.19289,-32.83787 -17.81168,-30.82742 -48.00073,17.50777 -0.0323,0.10251 c -6.85853,-8.36368 -14.52088,-16.0512 -22.88095,-22.91692 l 0.0683,-0.0342 17.50418,-47.99533 -30.83282,-17.80989 -32.80371,39.1893 v 0.0305 c -9.98389,-3.76734 -20.43353,-6.59239 -31.23922,-8.36007 l 0.036,-0.0323 -8.83661,-50.34205 h -35.59279 l -8.83661,50.34385 0.0324,0.0324 c -10.7985,1.75869 -21.25533,4.56935 -31.24103,8.3295 l -32.83786,-39.1911 -30.82922,17.80989 17.53834,47.99533 c -8.34029,6.84415 -15.99725,14.5065 -22.84498,22.84858 L 81.170453,639.55188 63.39114,670.3793 l 39.16233,32.84687 c -3.763745,9.9695 -6.601386,20.40475 -8.363673,31.20326 l -50.347449,9.85621 z"
       id="path3491" />
    <rect
       style="fill:#c93b2e"
       x="43.231781"
       y="784.83264"
       width="425.53644"
       height="5.4037461"
       id="rect3493" />
    <text
       xml:space="preserve"
       style="font-size:106.05830383px;font-style:normal;font-variant:normal;font-weight:normal;font-stretch:normal;line-height:125%;letter-spacing:0px;word-spacing:0px;fill:#000000;fill-opacity:1;stroke:none;font-family:ChunkFive;-inkscape-font-specification:ChunkFive"
       x="256.01459"
       y="895.29358"
       id="text3551"
       sodipodi:linespacing="125%"><tspan
         sodipodi:role="line"
         id="tspan3553"
         x="269.27185"
         y="895.29358"
         style="text-align:center;text-anchor:middle">EU VAT </tspan><tspan
         sodipodi:role="line"
         x="256.01456"
         y="1027.8665"
         id="tspan3555"
         style="text-align:center;text-anchor:middle">Assistant</tspan></text>
  </g>
</svg>
