<?xml version="1.0" encoding="UTF-8" standalone="no"?>
<!-- Uploaded to: SVG Repo, www.svgrepo.com, Generator: SVG Repo Mixer Tools -->

<svg
   fill="#000000"
   height="512"
   width="512"
   version="1.1"
   viewBox="0 0 312.96 312.96"
   enable-background="new 0 0 489 489"
   id="svg1"
   sodipodi:docname="ZZ.svg"
   inkscape:version="1.3 (0e150ed6c4, 2023-07-21)"
   xmlns:inkscape="http://www.inkscape.org/namespaces/inkscape"
   xmlns:sodipodi="http://sodipodi.sourceforge.net/DTD/sodipodi-0.dtd"
   xmlns="http://www.w3.org/2000/svg"
   xmlns:svg="http://www.w3.org/2000/svg">
  <defs
     id="defs1" />
  <sodipodi:namedview
     id="namedview1"
     pagecolor="#ffffff"
     bordercolor="#666666"
     borderopacity="1.0"
     inkscape:showpageshadow="2"
     inkscape:pageopacity="0.0"
     inkscape:pagecheckerboard="0"
     inkscape:deskcolor="#d1d1d1"
     inkscape:zoom="0.493125"
     inkscape:cx="-124.71483"
     inkscape:cy="907.47782"
     inkscape:window-width="2560"
     inkscape:window-height="1361"
     inkscape:window-x="1911"
     inkscape:window-y="-9"
     inkscape:window-maximized="1"
     inkscape:current-layer="svg1" />
  <g
     id="g1"
     transform="matrix(0.419375,0,0,0.419375,53.942813,53.942813)">
    <path
       d="M 244.5,0 C 109.3,0 0,109.3 0,244.5 0,379.7 109.3,489 244.5,489 379.7,489 489,379.7 489,244.5 489,109.3 379.7,0 244.5,0 Z M 170.7,33.3 C 157.8,51.4 146.8,70.5 137.6,90.5 H 82.1 c 24.2,-25.6 54.5,-45.4 88.6,-57.2 z m -106.1,78 h 64.2 c -15.1,38.9 -23.4,80.4 -24.6,122.8 H 21.1 C 23.2,188.2 39,145.9 64.6,111.3 Z m 0,266.4 C 39,343.1 23.2,300.8 21.1,254.9 h 83.1 c 1.2,42.4 9.8,83.9 25,122.8 z m 17.5,20.8 h 56 c 9.3,20 20.3,39.3 33,57.4 -34.2,-11.8 -64.7,-31.7 -89,-57.4 z m 152,69.5 c -10.4,-0.5 -20.7,-1.7 -30.7,-3.5 -16.6,-20.5 -30.8,-42.6 -42.3,-65.9 h 73 z m 0,-90.3 H 151.6 C 135.5,338.9 126.3,297.4 125,254.9 h 109.1 z m 0,-143.6 H 125 c 1.3,-42.4 10.4,-84 26.4,-122.8 h 82.7 z m 0.1,-143.6 h -0.1 -73.2 c 11.6,-23.5 25.8,-45.6 42.5,-65.9 10,-1.9 20.3,-3 30.8,-3.5 z m 190.2,20.8 c 25.6,34.6 41.5,76.8 43.5,122.8 h -83.1 c -1.2,-42.4 -9.8,-83.9 -25,-122.8 z M 406.9,90.5 h -56 c -9.3,-20 -20.3,-39.3 -33.1,-57.4 34.3,11.8 64.8,31.7 89.1,57.4 z m -152,-69.4 c 10.4,0.5 20.7,1.7 30.7,3.5 16.6,20.5 30.8,42.6 42.3,65.9 h -73 z m 0,90.2 h 82.5 c 16.1,38.7 25.3,80.3 26.6,122.8 H 254.9 Z m 0,143.6 H 364 c -1.3,42.4 -10.4,84 -26.4,122.8 h -82.7 z m -0.1,213 v -69.4 h 0.1 73.2 c -11.6,23.5 -25.8,45.6 -42.5,65.9 -10,1.9 -20.3,3 -30.8,3.5 z m 63,-12 c 12.7,-18.1 23.7,-37.4 32.9,-57.4 H 407 c -24.4,25.7 -54.9,45.6 -89.2,57.4 z m 41.7,-78.2 c 15,-38.9 23.5,-80.4 25.2,-122.8 H 468 c -2.1,45.9 -17.9,88.2 -43.5,122.8 z"
       id="path1" />
  </g>
</svg>
